<?xml version="1.0" standalone="no"?>
<!DOCTYPE svg PUBLIC "-//W3C//DTD SVG 20010904//EN"
 "http://www.w3.org/TR/2001/REC-SVG-20010904/DTD/svg10.dtd">
<svg version="1.0" xmlns="http://www.w3.org/2000/svg"
 width="1589.000000pt" height="1589.000000pt" viewBox="0 0 1589.000000 1589.000000"
 preserveAspectRatio="xMidYMid meet">

<g transform="translate(0.000000,1589.000000) scale(0.100000,-0.100000)"
fill="#000000" stroke="none">
<path d="M11290 15861 c-205 -44 -410 -166 -577 -345 -54 -58 -492 -665 -1402
-1943 l-1325 -1860 -82 18 c-130 29 -365 67 -534 86 -193 22 -820 25 -1000 5
-437 -48 -752 -115 -1130 -242 -573 -192 -1079 -469 -1555 -854 -228 -184
-420 -372 -453 -444 -30 -66 -33 -163 -7 -243 17 -52 129 -165 3383 -3421
2856 -2857 3374 -3371 3417 -3390 38 -17 68 -22 125 -22 108 0 170 35 300 170
559 581 974 1300 1200 2083 230 796 256 1675 73 2479 -14 64 -22 117 -17 121
5 4 848 580 1874 1279 1411 961 1885 1289 1947 1347 149 138 261 308 319 485
26 78 28 98 29 235 0 140 -2 156 -29 233 -15 46 -50 116 -76 155 -35 52 -525
555 -1780 1827 -2259 2291 -2092 2126 -2210 2183 -157 77 -314 95 -490 58z"/>
<path d="M2665 3795 c-1424 -1802 -2603 -3301 -2620 -3332 -27 -50 -30 -66
-30 -142 0 -74 4 -94 28 -143 55 -112 163 -173 297 -166 52 2 89 10 120 25 35
18 6530 5151 6589 5208 11 11 -138 164 -890 919 l-904 906 -2590 -3275z"/>
</g>
</svg>
